<svg width="157" height="18" viewBox="0 0 157 18" fill="none" xmlns="http://www.w3.org/2000/svg">
<path d="M12.6 16.688C12.336 16.448 12.144 16.16 12 15.824L5.83202 0.200025L0.624022 13.376C0.432022 13.808 0.312022 14.288 0.264022 14.768C0.192022 15.728 0.480022 16.664 1.08002 17.384C1.20002 17.552 1.48802 17.48 1.70402 17.24C1.72802 17.216 1.75202 17.168 1.77602 17.144L1.87202 17.024L1.89602 17L1.99202 16.88C2.01602 16.832 2.04002 16.808 2.06402 16.76C2.23202 16.496 2.28002 16.256 2.18402 16.184C1.56002 15.896 1.10402 15.368 0.888022 14.72C0.768022 14.336 0.792022 13.904 0.936022 13.52C0.936022 13.52 0.936022 13.52 0.936022 13.496L1.84802 11.168C1.96802 11.048 2.71202 10.304 4.46402 10.352C5.59202 10.376 6.69602 10.064 7.60802 9.44003L9.96002 15.368C10.2 15.944 10.056 16.592 9.60002 17.024H12.96L12.6 16.688ZM4.46402 9.99203C3.64802 9.94403 2.83202 10.136 2.11202 10.544L5.08802 3.03203L7.48802 9.10403C6.60002 9.70403 5.54402 10.016 4.46402 9.99203Z" fill="#222222"/>
<path d="M27.5541 15.152L26.8581 15.92C26.4261 16.4 25.8021 16.664 25.1541 16.664H16.1781V1.95203C16.1781 1.30403 16.4421 0.680026 16.9221 0.248026L16.9941 0.176025H13.6341L13.7061 0.248026C14.1621 0.680026 14.4501 1.30403 14.4501 1.95203V15.248C14.4501 15.896 14.1621 16.496 13.7061 16.952L13.6341 17H27.5541V15.152Z" fill="#222222"/>
<path d="M36.8505 16.664H30.8265V8.76803H33.3945C34.0425 8.76803 34.6665 9.03203 35.0985 9.51203L35.8185 10.28V6.92003L35.0985 7.68803C34.6665 8.14403 34.0425 8.43203 33.3945 8.43203H30.8265V0.536025H36.8505C37.4985 0.536025 38.1225 0.800026 38.5545 1.28003L39.2745 2.04803V0.176025H28.2825L28.3305 0.248026C28.8105 0.680026 29.0745 1.30403 29.0745 1.95203V15.248C29.0745 15.896 28.8105 16.52 28.3305 16.952L28.2825 17H39.2745V15.152L38.5545 15.92C38.1225 16.4 37.4985 16.664 36.8505 16.664Z" fill="#222222"/>
<path d="M54.538 17L54.13 16.784C53.722 16.544 53.386 16.232 53.122 15.872L47.626 7.95203L51.85 1.88002C52.258 1.25603 52.834 0.776025 53.482 0.416025L53.938 0.176025H51.682C51.922 0.656025 51.874 1.20802 51.586 1.66402L47.41 7.64003L42.97 1.28003C42.754 0.944026 42.706 0.536025 42.85 0.176025H39.49L39.898 0.416025C40.306 0.656025 40.642 0.944026 40.906 1.32802L46.354 9.17603L42.058 15.32C41.65 15.92 41.098 16.424 40.426 16.76L39.994 17H42.226C41.986 16.544 42.034 15.968 42.346 15.536L46.57 9.46403L51.058 15.92C51.274 16.256 51.322 16.64 51.178 17.024L54.538 17Z" fill="#222222"/>
<path d="M63.6396 16.664H57.6156V8.76803H60.1836C60.8316 8.76803 61.4556 9.03203 61.8876 9.51203L62.6076 10.28V6.92003L61.8876 7.68803C61.4556 8.14403 60.8316 8.43203 60.1836 8.43203H57.6156V0.536025H63.6396C64.2876 0.536025 64.9116 0.800026 65.3436 1.28003L66.0636 2.04803V0.176025H55.0716L55.1196 0.248026C55.5996 0.680026 55.8636 1.30403 55.8636 1.95203V15.248C55.8636 15.896 55.5996 16.52 55.1196 16.952L55.0716 17H66.0636V15.152L65.3436 15.92C64.9116 16.4 64.2876 16.664 63.6396 16.664Z" fill="#222222"/>
<path d="M69.639 15.248V1.95203C69.639 1.30403 69.903 0.680026 70.383 0.248026L70.455 0.176025H67.095L67.143 0.248026C67.623 0.680026 67.887 1.30403 67.887 1.95203V15.248C67.887 15.896 67.623 16.52 67.143 16.952L67.095 17H70.455L70.383 16.952C69.903 16.52 69.639 15.896 69.639 15.248Z" fill="#222222"/>
<path d="M101.912 0.176025C102.248 0.680026 102.296 1.30403 102.056 1.85603L96.0319 14.576L91.6639 5.31203L93.3199 1.78403C93.5839 1.25603 93.9919 0.800026 94.4959 0.488026L94.9999 0.176025H92.7679C93.1039 0.680026 93.1759 1.30403 92.9119 1.83203L91.4719 4.90403L89.8639 1.52003C89.6719 1.08803 89.6959 0.584026 89.9599 0.176025H86.5999L86.9359 0.416025C87.3919 0.704026 87.7759 1.13603 88.0159 1.64003L90.5119 6.94403L86.9119 14.576L80.7439 1.54402C80.5519 1.11202 80.5759 0.608026 80.8399 0.200025L80.8639 0.176025H77.5039L77.7919 0.392025C78.2479 0.680026 78.6079 1.11202 78.8479 1.61603L86.1439 17L87.1039 14.984L90.7039 7.32803L95.2639 17L102.2 2.33603C102.632 1.44803 103.304 0.680026 104.144 0.176025H101.912Z" fill="#222222"/>
<path d="M113.257 16.664H107.233V8.76803H109.801C110.449 8.76803 111.073 9.03203 111.505 9.51203L112.225 10.28V6.92003L111.505 7.68803C111.073 8.14403 110.449 8.43203 109.801 8.43203H107.233V0.536025H113.257C113.905 0.536025 114.529 0.800026 114.961 1.28003L115.681 2.04803V0.176025H104.689L104.737 0.248026C105.217 0.680026 105.481 1.30403 105.481 1.95203V15.248C105.481 15.896 105.217 16.52 104.737 16.952L104.689 17H115.681V15.152L114.961 15.92C114.529 16.4 113.905 16.664 113.257 16.664Z" fill="#222222"/>
<path d="M130.632 15.152L129.936 15.92C129.504 16.4 128.88 16.664 128.232 16.664H119.256V1.95203C119.256 1.30403 119.52 0.680026 120 0.248026L120.072 0.176025H116.712L116.784 0.248026C117.24 0.680026 117.528 1.30403 117.528 1.95203V15.248C117.528 15.896 117.24 16.496 116.784 16.952L116.712 17H130.632V15.152Z" fill="#222222"/>
<path d="M145.281 15.152L144.585 15.92C144.153 16.4 143.529 16.664 142.881 16.664H133.905V1.95203C133.905 1.30403 134.169 0.680026 134.649 0.248026L134.721 0.176025H131.361L131.433 0.248026C131.889 0.680026 132.177 1.30403 132.177 1.95203V15.248C132.177 15.896 131.889 16.496 131.433 16.952L131.361 17H145.281V15.152Z" fill="#222222"/>
<path d="M156.593 12.416C156.545 12.104 156.473 11.792 156.377 11.504C156.305 11.336 156.233 11.192 156.161 11.048C156.065 10.88 155.969 10.712 155.849 10.568C155.321 9.99203 154.721 9.53603 154.049 9.15203L153.545 8.86403C153.377 8.76803 153.161 8.67203 152.969 8.55203C152.585 8.36003 152.177 8.16803 151.745 7.95203C150.881 7.54403 150.161 7.18403 149.561 6.82403C149.033 6.53603 148.577 6.17603 148.145 5.76803C147.425 5.04803 147.209 4.32803 147.257 3.58403C147.305 2.79203 147.689 2.04803 148.289 1.54402C148.937 0.944026 149.969 0.536025 151.385 0.536025C151.985 0.536025 152.561 0.704026 153.065 1.04003C153.905 1.59203 154.529 2.40803 154.841 3.36803C154.889 3.56003 155.153 3.60803 155.465 3.51203C155.657 3.46403 155.849 3.39203 156.041 3.29603C156.161 3.22403 156.257 3.12803 156.305 3.00803C156.353 2.86403 156.329 2.72003 156.257 2.60003C155.897 2.09602 155.465 1.64003 154.961 1.25603C154.481 0.896026 153.929 0.608026 153.329 0.440025C152.705 0.272026 152.057 0.176025 151.385 0.176025C149.921 0.176025 148.793 0.512025 147.929 1.08803C147.113 1.61603 146.513 2.43202 146.225 3.39203C146.081 3.92003 146.057 4.47203 146.153 5.02403C146.297 5.67203 146.585 6.24803 146.993 6.75203C147.473 7.35203 148.025 7.85603 148.673 8.24003C149.417 8.72003 150.185 9.15203 151.001 9.51203C151.865 9.94403 152.585 10.28 153.233 10.64C153.761 10.88 154.265 11.192 154.697 11.576C154.769 11.648 154.841 11.72 154.913 11.816C154.961 11.888 155.033 11.984 155.081 12.08C155.177 12.248 155.249 12.44 155.321 12.632C155.417 13.016 155.465 13.4 155.417 13.76C155.321 14.552 154.913 15.248 154.289 15.728C153.881 16.016 153.449 16.232 152.969 16.376C152.393 16.568 151.793 16.664 151.169 16.664C151.145 16.664 151.121 16.664 151.097 16.664C150.497 16.664 149.897 16.52 149.345 16.232C148.433 15.776 147.665 15.08 147.137 14.192C147.041 14.048 146.777 14.048 146.489 14.192C146.321 14.288 146.153 14.384 145.985 14.528C145.889 14.6 145.793 14.72 145.793 14.864C145.769 15.008 145.817 15.152 145.889 15.248C146.801 16.064 147.929 16.616 149.153 16.856C149.801 16.952 150.449 17.024 151.097 17C151.241 17 151.409 17 151.553 17C151.625 17 151.673 16.976 151.745 16.976H151.817C152.225 16.952 152.633 16.88 153.041 16.784C153.569 16.664 154.073 16.472 154.553 16.208C155.969 15.488 156.761 13.976 156.593 12.416Z" fill="#222222"/>
</svg>
