<svg viewBox="0 0 24 24"  xmlns="http://www.w3.org/2000/svg" style="display:none">

	<symbol viewBox="0 0 81 15" id="slider-arrow-1-prev">
		<path fill-rule="evenodd" clip-rule="evenodd" d="M6.65685 0.292893L0.292892 6.65685C-0.0976334 7.04738 -0.0976334 7.68054 0.292892 8.07107L6.65685 14.435C7.04738 14.8256 7.68054 14.8256 8.07107 14.435C8.46159 14.0445 8.46159 13.4113 8.07107 13.0208L3.41422 8.36396H81V6.36396H3.41422L8.07107 1.70711C8.46159 1.31658 8.46159 0.683418 8.07107 0.292893C7.68054 -0.0976311 7.04738 -0.0976311 6.65685 0.292893Z"/>
	</symbol>

	<symbol viewBox="0 0 81 15" id="slider-arrow-1-next">
		<path fill-rule="evenodd" clip-rule="evenodd" d="M74.3431 0.292893L80.7071 6.65685C81.0976 7.04738 81.0976 7.68054 80.7071 8.07107L74.3431 14.435C73.9526 14.8256 73.3195 14.8256 72.9289 14.435C72.5384 14.0445 72.5384 13.4113 72.9289 13.0208L77.5858 8.36396H0V6.36396H77.5858L72.9289 1.70711C72.5384 1.31658 72.5384 0.683418 72.9289 0.292893C73.3195 -0.0976311 73.9526 -0.0976311 74.3431 0.292893Z"/>
	</symbol>

	<symbol viewBox="0 0 28 80" id="slider-arrow-2-prev">
		<path fill-rule="evenodd" clip-rule="evenodd" d="M26.5839 0.722656L27.416 1.27736L1.6009 40L27.416 78.7227L26.5839 79.2774L0.399048 40L26.5839 0.722656Z"/>
	</symbol>

	<symbol viewBox="0 0 28 80" id="slider-arrow-2-next">
		<path fill-rule="evenodd" clip-rule="evenodd" d="M1.41617 0.722656L0.584124 1.27736L26.3992 40L0.584124 78.7227L1.41617 79.2774L27.6011 40L1.41617 0.722656Z"/>
	</symbol>

	<symbol viewBox="0 0 14 27" id="facebook">
		<path d="M9.08712 26.9999V14.6839H13.2148L13.8327 9.88412H9.08712V6.81962C9.08712 5.43001 9.47245 4.48292 11.4623 4.48292L14 4.48175V0.188923C13.5609 0.130643 12.0546 0 10.3021 0C6.64324 0 4.13831 2.2367 4.13831 6.34451V9.88425H0V14.684H4.13818V27L9.08712 26.9999Z"/>
	</symbol>

	<symbol viewBox="0 0 27 27" id="instagram">
		<path d="M9.00108 13.5C9.00108 11.0148 11.0153 8.99964 13.5005 8.99964C15.9858 8.99964 18.0011 11.0148 18.0011 13.5C18.0011 15.9852 15.9858 18.0004 13.5005 18.0004C11.0153 18.0004 9.00108 15.9852 9.00108 13.5ZM6.56818 13.5C6.56818 17.3286 9.67179 20.4321 13.5005 20.4321C17.3293 20.4321 20.4329 17.3286 20.4329 13.5C20.4329 9.6714 17.3293 6.56791 13.5005 6.56791C9.67179 6.56791 6.56818 9.6714 6.56818 13.5ZM19.0873 6.29305C19.0872 6.61346 19.182 6.92671 19.36 7.19319C19.5379 7.45966 19.7908 7.6674 20.0868 7.79014C20.3828 7.91287 20.7085 7.94508 21.0228 7.8827C21.3371 7.82032 21.6258 7.66614 21.8524 7.43967C22.0791 7.2132 22.2335 6.92461 22.2962 6.61038C22.3588 6.29616 22.3268 5.97042 22.2043 5.67435C22.0818 5.37829 21.8743 5.12519 21.6079 4.94708C21.3416 4.76896 21.0284 4.67383 20.708 4.6737H20.7073C20.2779 4.6739 19.866 4.84455 19.5622 5.14818C19.2585 5.4518 19.0877 5.86358 19.0873 6.29305V6.29305ZM8.04632 24.4887C6.73007 24.4287 6.01465 24.2095 5.53922 24.0243C4.9089 23.7789 4.45917 23.4867 3.98633 23.0145C3.51349 22.5423 3.2208 22.093 2.97649 21.4627C2.79116 20.9875 2.57191 20.2719 2.51207 18.9557C2.44662 17.5327 2.43355 17.1053 2.43355 13.5001C2.43355 9.89496 2.4477 9.46868 2.51207 8.04449C2.57202 6.72829 2.79288 6.01409 2.97649 5.53748C3.22188 4.9072 3.51414 4.45748 3.98633 3.98466C4.45853 3.51184 4.90782 3.21916 5.53922 2.97486C6.01444 2.78953 6.73007 2.57029 8.04632 2.51046C9.46939 2.44501 9.89687 2.43194 13.5005 2.43194C17.1042 2.43194 17.5321 2.44609 18.9564 2.51046C20.2726 2.5704 20.9869 2.79126 21.4635 2.97486C22.0938 3.21916 22.5435 3.51248 23.0164 3.98466C23.4892 4.45684 23.7808 4.9072 24.0262 5.53748C24.2115 6.01268 24.4308 6.72829 24.4906 8.04449C24.5561 9.46868 24.5691 9.89496 24.5691 13.5001C24.5691 17.1053 24.5561 17.5315 24.4906 18.9557C24.4307 20.2719 24.2104 20.9873 24.0262 21.4627C23.7808 22.093 23.4886 22.5427 23.0164 23.0145C22.5442 23.4862 22.0938 23.7789 21.4635 24.0243C20.9883 24.2096 20.2726 24.4288 18.9564 24.4887C17.5333 24.5541 17.1058 24.5672 13.5005 24.5672C9.89525 24.5672 9.46896 24.5541 8.04632 24.4887V24.4887ZM7.93454 0.081756C6.49732 0.147204 5.51524 0.375084 4.65758 0.708804C3.76935 1.05343 3.01742 1.51578 2.26604 2.26595C1.51465 3.01612 1.05347 3.7692 0.708832 4.65739C0.375099 5.51556 0.14721 6.49706 0.0817593 7.93422C0.0152286 9.37364 0 9.83383 0 13.5C0 17.1662 0.0152286 17.6264 0.0817593 19.0658C0.14721 20.503 0.375099 21.4844 0.708832 22.3426C1.05347 23.2303 1.51476 23.9842 2.26604 24.7341C3.01732 25.4839 3.76935 25.9456 4.65758 26.2912C5.51686 26.6249 6.49732 26.8528 7.93454 26.9182C9.37478 26.9837 9.83423 27 13.5005 27C17.1669 27 17.6271 26.9848 19.0665 26.9182C20.5039 26.8528 21.4853 26.6249 22.3435 26.2912C23.2312 25.9456 23.9837 25.4842 24.735 24.7341C25.4864 23.9839 25.9466 23.2303 26.2923 22.3426C26.626 21.4844 26.855 20.5029 26.9193 19.0658C26.9848 17.6253 27 17.1662 27 13.5C27 9.83383 26.9848 9.37364 26.9193 7.93422C26.8539 6.49696 26.626 5.51502 26.2923 4.65739C25.9466 3.76974 25.4852 3.0173 24.735 2.26595C23.9848 1.51459 23.2312 1.05343 22.3446 0.708804C21.4853 0.375084 20.5038 0.146124 19.0676 0.081756C17.6281 0.016308 17.1679 0 13.5016 0C9.83531 0 9.37478 0.015228 7.93454 0.081756Z"/>
	</symbol>

	<symbol viewBox="0 0 27 27" id="pinterest">
		<path d="M0 13.4998C0 19.0277 3.32415 23.7766 8.08088 25.8646C8.04291 24.9219 8.07413 23.7903 8.31586 22.7646C8.57542 21.6687 10.0529 15.4086 10.0529 15.4086C10.0529 15.4086 9.62167 14.5466 9.62167 13.2727C9.62167 11.2721 10.7812 9.77795 12.2253 9.77795C13.4532 9.77795 14.0465 10.7003 14.0465 11.8047C14.0465 13.0391 13.2592 14.8855 12.8543 16.5956C12.516 18.0276 13.5723 19.1956 14.985 19.1956C17.5429 19.1956 19.2656 15.9105 19.2656 12.0182C19.2656 9.05941 17.2728 6.84484 13.6481 6.84484C9.55301 6.84484 7.00183 9.89871 7.00183 13.3099C7.00183 14.4861 7.34861 15.3154 7.89177 15.9577C8.14152 16.2527 8.17622 16.3714 8.08584 16.7101C8.02108 16.9585 7.87237 17.5565 7.81077 17.7935C7.72091 18.1354 7.44385 18.2576 7.13483 18.1314C5.24863 17.3614 4.37019 15.2958 4.37019 12.9739C4.37019 9.13904 7.60448 4.54073 14.0186 4.54073C19.1729 4.54073 22.5653 8.27042 22.5653 12.274C22.5653 17.5698 19.621 21.5261 15.281 21.5261C13.8235 21.5261 12.4525 20.7383 11.9829 19.8434C11.9829 19.8434 11.1992 22.9538 11.0331 23.5544C10.7469 24.5953 10.1867 25.6356 9.6744 26.4464C10.8885 26.8048 12.1712 27 13.5005 27C20.9554 27 27 20.9559 27 13.4998C27 6.04414 20.9554 0 13.5005 0C6.04481 0 0 6.04414 0 13.4998Z"/>
	</symbol>

	<symbol viewBox="0 0 29 24" id="twitter">
		<path d="M25.7625 5.8125C25.7625 6.075 25.7625 6.3375 25.7625 6.5625C25.7625 14.325 19.8375 23.2875 9.0375 23.2875C5.7 23.2875 2.625 22.3125 0 20.6625C0.45 20.7 0.9375 20.7375 1.3875 20.7375C4.125 20.7375 6.675 19.8 8.7 18.225C6.1125 18.1875 3.9375 16.4625 3.225 14.1375C3.6 14.2125 3.9375 14.25 4.35 14.25C4.875 14.25 5.4 14.175 5.8875 14.025C3.1875 13.5 1.1625 11.1375 1.1625 8.2875C1.1625 8.25 1.1625 8.25 1.1625 8.2125C1.95 8.6625 2.85 8.925 3.825 8.9625C2.25 7.9125 1.2 6.1125 1.2 4.05C1.2 2.9625 1.5 1.95 1.9875 1.0875C4.875 4.65 9.225 6.975 14.1 7.2375C13.9875 6.825 13.95 6.3375 13.95 5.8875C13.95 2.625 16.575 0 19.8375 0C21.525 0 23.0625 0.7125 24.1125 1.8375C25.4625 1.575 26.7 1.0875 27.8625 0.4125C27.4125 1.8 26.475 2.925 25.275 3.675C26.475 3.525 27.6 3.225 28.65 2.7375C27.9 3.9375 26.925 4.9875 25.7625 5.8125Z"/>
	</symbol>

	<symbol viewBox="0 0 26 32" id="pinterest-2">
		<path d="M10.7691 21.79C11.4318 23.0416 13.3742 24.1015 15.4366 24.1015C21.5781 24.1015 26 18.5257 26 11.6025C26 4.96688 20.5098 0 13.4485 0C4.66183 0 0 5.81818 0 12.1607C0 15.1092 1.58822 18.7738 4.13052 19.9408C4.51901 20.1212 4.72468 20.0423 4.81037 19.6758C4.87893 19.3939 5.22171 18.0352 5.37596 17.3982C5.43309 17.1952 5.38167 16.9753 5.23314 16.8231C4.39332 15.814 3.71918 13.9648 3.71918 12.2396C3.71918 7.80832 7.11844 3.51797 12.9114 3.51797C17.9161 3.51797 21.4181 6.87808 21.4181 11.6927C21.4181 17.1276 18.6359 20.8936 15.0138 20.8936C13.0143 20.8936 11.5175 19.2643 11.9974 17.2629C12.5744 14.8724 13.6827 12.296 13.6827 10.5708C13.6827 9.02608 12.8429 7.74066 11.1061 7.74066C9.06087 7.74066 7.42123 9.82664 7.42123 12.6173C7.42123 14.3989 8.03252 15.5997 8.03252 15.5997C8.03252 15.5997 6.01582 24.0169 5.64447 25.5842C5.22171 27.3883 5.41595 29.976 5.59877 31.5546C6.01582 31.7125 6.42716 31.8703 6.85564 32C7.68403 30.6864 9.02088 28.3749 9.49506 26.5595C9.74643 25.6293 10.7691 21.79 10.7691 21.79Z"/>
	</symbol>

	<symbol viewBox="0 0 28 28" id="sound">
		<path d="M21.4199 22.5865C21.1201 22.5865 20.8202 22.471 20.5927 22.2423C20.1377 21.785 20.1401 21.0465 20.5974 20.5915C22.3614 18.8391 23.3332 16.4988 23.3332 13.9998C23.3332 11.5008 22.3614 9.16047 20.5974 7.40814C20.1401 6.95314 20.1377 6.2158 20.5927 5.7573C21.0466 5.29997 21.7839 5.29764 22.2424 5.75264C24.4509 7.94714 25.6666 10.8755 25.6666 13.9998C25.6666 17.1241 24.4509 20.0525 22.2424 22.247C22.0149 22.4733 21.7174 22.5865 21.4199 22.5865Z"/>
		<path d="M18.1182 19.285C17.8172 19.285 17.5162 19.1695 17.2887 18.9385C16.8348 18.48 16.8395 17.7415 17.298 17.2888C18.1672 16.429 18.6665 15.2297 18.6665 14C18.6665 12.7703 18.1672 11.571 17.298 10.7112C16.8395 10.2585 16.836 9.52001 17.2887 9.06151C17.7413 8.60418 18.4798 8.59951 18.9383 9.05218C20.2485 10.3472 20.9998 12.1508 20.9998 14C20.9998 15.8492 20.2485 17.6528 18.9383 18.9478C18.7108 19.173 18.4145 19.285 18.1182 19.285Z"/>
		<path d="M13.9997 25.6666C13.6963 25.6666 13.3977 25.5476 13.1748 25.3247L7.68334 19.8332H4.66634C3.37951 19.8332 2.33301 18.7867 2.33301 17.4999V10.4999C2.33301 9.21308 3.37951 8.16658 4.66634 8.16658H7.68334L13.1748 2.67507C13.5085 2.34024 14.0102 2.24107 14.4465 2.42191C14.8828 2.60274 15.1663 3.02857 15.1663 3.49991V24.4999C15.1663 24.9712 14.8828 25.3971 14.4465 25.5779C14.3018 25.6374 14.1502 25.6666 13.9997 25.6666Z"/>
	</symbol>

	<symbol viewBox="0 0 28 28" id="sound-min">
		<path d="M18.1182 19.285C17.8172 19.285 17.5162 19.1695 17.2887 18.9385C16.8348 18.48 16.8395 17.7415 17.298 17.2888C18.1672 16.429 18.6665 15.2297 18.6665 14C18.6665 12.7703 18.1672 11.571 17.298 10.7112C16.8395 10.2585 16.836 9.52001 17.2887 9.06151C17.7413 8.60418 18.4798 8.59951 18.9383 9.05218C20.2485 10.3472 20.9998 12.1508 20.9998 14C20.9998 15.8492 20.2485 17.6528 18.9383 18.9478C18.7108 19.173 18.4145 19.285 18.1182 19.285Z"/>
		<path d="M13.9997 25.6666C13.6963 25.6666 13.3977 25.5476 13.1748 25.3247L7.68334 19.8332H4.66634C3.37951 19.8332 2.33301 18.7867 2.33301 17.4999V10.4999C2.33301 9.21308 3.37951 8.16658 4.66634 8.16658H7.68334L13.1748 2.67507C13.5085 2.34024 14.0102 2.24107 14.4465 2.42191C14.8828 2.60274 15.1663 3.02857 15.1663 3.49991V24.4999C15.1663 24.9712 14.8828 25.3971 14.4465 25.5779C14.3018 25.6374 14.1502 25.6666 13.9997 25.6666Z"/>
	</symbol>

	<symbol viewBox="0 0 28 28" id="sound-none">
		<path d="M13.9997 25.6666C13.6963 25.6666 13.3977 25.5476 13.1748 25.3247L7.68334 19.8332H4.66634C3.37951 19.8332 2.33301 18.7867 2.33301 17.4999V10.4999C2.33301 9.21308 3.37951 8.16658 4.66634 8.16658H7.68334L13.1748 2.67507C13.5085 2.34024 14.0102 2.24107 14.4465 2.42191C14.8828 2.60274 15.1663 3.02857 15.1663 3.49991V24.4999C15.1663 24.9712 14.8828 25.3971 14.4465 25.5779C14.3018 25.6374 14.1502 25.6666 13.9997 25.6666Z"/>
	</symbol>

	<symbol viewBox="0 0 19 10" id="select-arrow">
		<path fill-rule="evenodd" clip-rule="evenodd" d="M0.658203 1.36419L1.34357 0.635986L9.50089 8.31346L17.6582 0.635986L18.3436 1.36419L9.50089 9.68671L0.658203 1.36419Z"/>
	</symbol>

	<symbol viewBox="0 0 8 20" id="arrow-to-down">
		<path fill-rule="evenodd" clip-rule="evenodd" d="M4.00034 0C4.27648 0 4.50034 0.223858 4.50034 0.5V18.2929L6.82877 15.9645C7.02403 15.7692 7.34061 15.7692 7.53587 15.9645C7.73114 16.1597 7.73114 16.4763 7.53587 16.6716L4.35389 19.8536C4.15863 20.0488 3.84205 20.0488 3.64679 19.8536L0.464806 16.6716C0.269544 16.4763 0.269544 16.1597 0.464806 15.9645C0.660068 15.7692 0.976651 15.7692 1.17191 15.9645L3.50034 18.2929V0.5C3.50034 0.223858 3.7242 0 4.00034 0Z"/>
	</symbol>

	<symbol viewBox="0 0 65 16" id="arrow-prev">
		<path fill-rule="evenodd" clip-rule="evenodd" d="M6.65685 15.0709L0.292892 8.70692C-0.0976334 8.31639 -0.0976334 7.68323 0.292892 7.2927L6.65685 0.928741C7.04738 0.538216 7.68054 0.538216 8.07107 0.928741C8.46159 1.31926 8.46159 1.95243 8.07107 2.34295L3.41422 6.99981H65V8.99981H3.41422L8.07107 13.6567C8.46159 14.0472 8.46159 14.6804 8.07107 15.0709C7.68054 15.4614 7.04738 15.4614 6.65685 15.0709Z"/>
	</symbol>

	<symbol viewBox="0 0 65 16" id="arrow-next">
		<path fill-rule="evenodd" clip-rule="evenodd" d="M58.3431 0.929124L64.7071 7.29308C65.0976 7.68361 65.0976 8.31677 64.7071 8.7073L58.3431 15.0713C57.9526 15.4618 57.3195 15.4618 56.9289 15.0713C56.5384 14.6807 56.5384 14.0476 56.9289 13.657L61.5858 9.00019H0V7.00019H61.5858L56.9289 2.34334C56.5384 1.95281 56.5384 1.31965 56.9289 0.929124C57.3195 0.538599 57.9526 0.538599 58.3431 0.929124Z"/>
	</symbol>

	<symbol viewBox="0 0 24 26" id="date">
		<path d="M22 2H19V1C19 0.734784 18.8946 0.48043 18.7071 0.292893C18.5196 0.105357 18.2652 0 18 0C17.7348 0 17.4804 0.105357 17.2929 0.292893C17.1054 0.48043 17 0.734784 17 1V2H7V1C7 0.734784 6.89464 0.48043 6.70711 0.292893C6.51957 0.105357 6.26522 0 6 0C5.73478 0 5.48043 0.105357 5.29289 0.292893C5.10536 0.48043 5 0.734784 5 1V2H2C1.46957 2 0.960859 2.21071 0.585786 2.58579C0.210714 2.96086 0 3.46957 0 4V24C0 24.5304 0.210714 25.0391 0.585786 25.4142C0.960859 25.7893 1.46957 26 2 26H22C22.5304 26 23.0391 25.7893 23.4142 25.4142C23.7893 25.0391 24 24.5304 24 24V4C24 3.46957 23.7893 2.96086 23.4142 2.58579C23.0391 2.21071 22.5304 2 22 2ZM5 4V5C5 5.26522 5.10536 5.51957 5.29289 5.70711C5.48043 5.89464 5.73478 6 6 6C6.26522 6 6.51957 5.89464 6.70711 5.70711C6.89464 5.51957 7 5.26522 7 5V4H17V5C17 5.26522 17.1054 5.51957 17.2929 5.70711C17.4804 5.89464 17.7348 6 18 6C18.2652 6 18.5196 5.89464 18.7071 5.70711C18.8946 5.51957 19 5.26522 19 5V4H22V8H2V4H5ZM22 24H2V10H22V24Z"/>
	</symbol>

</svg>